Coordinates
version=1
nRows=49
nColumns=12
inDegrees=yes

Units are S.I. units (second, meters, Newtons, ...)
Angles are in degrees

endheader
time	SC_y	SC_z	SC_x	AC_y	AC_z	AC_x	GH_y	GH_z	GH_yy	EL_x	PS_y
       0.0              -48.79          38.55          15.94          59.77          3.449         -13.69         -87.45          45.53         -68.65          139.2          82.78
 0.0008661              -48.79          38.55          15.94          59.77           3.45         -13.69         -87.44          45.53         -68.66          139.2          82.77
  0.001732              -48.79          38.55          15.94          59.77          3.451         -13.69         -87.43          45.53         -68.67          139.1          82.77
  0.002598              -48.79          38.55          15.94          59.76          3.452         -13.68         -87.41          45.53         -68.68          139.1          82.77
  0.003465              -48.79          38.54          15.94          59.76          3.453         -13.68          -87.4          45.54         -68.69          139.1          82.76
  0.004331              -48.79          38.54          15.93          59.76          3.454         -13.68         -87.39          45.54          -68.7          139.1          82.76
  0.005197              -48.79          38.54          15.93          59.75          3.455         -13.67         -87.37          45.54         -68.71          139.1          82.75
  0.006063               -48.8          38.54          15.93          59.75          3.456         -13.67         -87.36          45.55         -68.73          139.1          82.75
  0.006929               -48.8          38.54          15.93          59.75          3.457         -13.67         -87.34          45.55         -68.74          139.0          82.74
  0.007795               -48.8          38.54          15.92          59.74          3.458         -13.66         -87.32          45.55         -68.76          139.0          82.74
  0.008661               -48.8          38.54          15.92          59.74           3.46         -13.66          -87.3          45.56         -68.78          139.0          82.73
  0.009528               -48.8          38.54          15.92          59.73          3.461         -13.66         -87.28          45.56          -68.8          139.0          82.72
   0.01039               -48.8          38.54          15.91          59.73          3.463         -13.65         -87.26          45.57         -68.82          139.0          82.71
   0.01126               -48.8          38.54          15.91          59.72          3.465         -13.65         -87.23          45.57         -68.84          138.9          82.71
   0.01213              -48.81          38.54           15.9          59.72          3.466         -13.64          -87.2          45.58         -68.86          138.9           82.7
   0.01299              -48.81          38.53           15.9          59.71          3.468         -13.64         -87.17          45.58         -68.89          138.9          82.69
   0.01386              -48.81          38.53          15.89           59.7          3.471         -13.63         -87.14          45.59         -68.91          138.8          82.68
   0.01472              -48.81          38.53          15.89          59.69          3.473         -13.62         -87.11          45.59         -68.94          138.8          82.67
   0.01559              -48.82          38.53          15.88          59.69          3.476         -13.62         -87.07           45.6         -68.98          138.8          82.66
   0.01646              -48.82          38.53          15.88          59.68          3.479         -13.61         -87.03          45.61         -69.01          138.7          82.64
   0.01732              -48.82          38.53          15.87          59.67          3.482          -13.6         -86.98          45.62         -69.05          138.7          82.63
   0.01819              -48.83          38.52          15.86          59.65          3.485         -13.59         -86.93          45.63          -69.1          138.6          82.61
   0.01906              -48.83          38.52          15.85          59.64          3.489         -13.58         -86.88          45.64         -69.15          138.6          82.59
   0.01992              -48.83          38.52          15.84          59.63          3.494         -13.57         -86.82          45.65          -69.2          138.5          82.57
   0.02079              -48.84          38.51          15.83          59.61          3.498         -13.55         -86.75          45.66         -69.26          138.4          82.55
   0.02165              -48.85          38.51          15.82          59.59          3.504         -13.54         -86.68          45.68         -69.32          138.3          82.53
   0.02252              -48.85          38.51          15.81          59.57           3.51         -13.52         -86.59           45.7          -69.4          138.2           82.5
   0.02339              -48.86           38.5          15.79          59.55          3.516          -13.5          -86.5          45.71         -69.48          138.1          82.47
   0.02425              -48.87           38.5          15.77          59.53          3.524         -13.48         -86.39          45.73         -69.58          138.0          82.44
   0.02512              -48.88          38.49          15.75           59.5          3.533         -13.46         -86.27          45.76         -69.68          137.9           82.4
   0.02598              -48.89          38.49          15.73          59.47          3.542         -13.43         -86.13          45.79         -69.81          137.7          82.35
   0.02685               -48.9          38.48           15.7          59.43          3.554          -13.4         -85.97          45.82         -69.95          137.6           82.3
   0.02772              -48.91          38.47          15.67          59.39          3.567         -13.36         -85.78          45.85         -70.11          137.4          82.24
   0.02858              -48.93          38.46          15.64          59.34          3.582         -13.32         -85.57           45.9          -70.3          137.1          82.17
   0.02945              -48.95          38.45           15.6          59.28            3.6         -13.27         -85.32          45.94         -70.52          136.9          82.09
   0.03032              -48.97          38.43          15.55          59.21          3.621         -13.21         -85.02           46.0         -70.78          136.5           82.0
   0.03118              -48.99          38.42          15.49          59.13          3.645         -13.14         -84.67          46.07         -71.09          136.2          81.89
   0.03205              -49.02           38.4          15.42          59.03          3.675         -13.06         -84.25          46.15         -71.46          135.7          81.75
   0.03291              -49.06          38.37          15.34          58.91          3.711         -12.96         -83.74          46.25          -71.9          135.2          81.59
   0.03378              -49.11          38.34          15.24          58.76          3.755         -12.83         -83.11          46.38         -72.45          134.5          81.39
   0.03465              -49.16          38.31          15.12          58.59          3.809         -12.68         -82.34          46.53         -73.13          133.7          81.14
   0.03551              -49.24          38.26          14.96          58.36          3.877         -12.49         -81.38          46.71         -73.97          132.6          80.83
   0.03638              -49.33          38.21          14.76          58.08          3.962         -12.25         -80.17          46.95         -75.03          131.3          80.45
   0.03724              -49.44          38.14          14.51          57.72          4.071         -11.95         -78.64          47.25         -76.37          129.7          79.95
   0.03811              -49.58          38.05           14.2          57.27           4.21         -11.56         -76.67          47.64          -78.1          127.5          79.32
   0.03898              -49.77          37.93          13.79          56.68          4.388         -11.06         -74.15          48.13         -80.31          124.8          78.52
   0.03984              -50.01          37.78          13.26          55.93          4.615         -10.42         -70.92          48.76         -83.14          121.3          77.48
   0.04071              -50.31          37.59           12.6          54.99          4.901         -9.623         -66.87          49.55          -86.7          117.0          76.18
   0.04158              -50.67          37.36           11.8          53.84           5.25         -8.647         -61.93          50.52         -91.03          111.6           74.6
